<?xml version="1.0" standalone="no"?>
<!DOCTYPE svg PUBLIC "-//W3C//DTD SVG 20010904//EN"
 "http://www.w3.org/TR/2001/REC-SVG-20010904/DTD/svg10.dtd">
<svg version="1.0" xmlns="http://www.w3.org/2000/svg"
 width="500.000000pt" height="500.000000pt" viewBox="0 0 500.000000 500.000000"
 preserveAspectRatio="xMidYMid meet">

<g transform="translate(0.000000,500.000000) scale(0.100000,-0.100000)"
fill="#000000" stroke="none">
<path d="M2616 4541 l-27 -39 27 -41 c14 -23 29 -41 33 -41 3 0 19 20 35 45
l28 45 -26 35 c-15 19 -31 35 -35 35 -5 0 -20 -18 -35 -39z"/>
<path d="M2647 4323 c-3 -10 -11 -43 -18 -73 -6 -30 -17 -58 -23 -62 -6 -4 1
-8 16 -8 19 0 26 4 22 14 -5 14 20 46 36 46 12 0 31 -36 23 -44 -3 -3 3 -6 14
-6 21 0 21 0 2 38 -11 20 -25 54 -31 75 -12 39 -33 49 -41 20z m33 -48 c0 -8
-4 -17 -10 -20 -6 -4 -10 5 -10 20 0 15 4 24 10 20 6 -3 10 -12 10 -20z"/>
<path d="M1818 4219 c-44 -23 -63 -50 -46 -67 7 -7 18 -12 25 -12 21 0 15 -18
-9 -32 l-23 -12 25 -7 c45 -13 51 -11 44 16 -6 24 -4 25 18 20 49 -12 62 45
21 93 -18 21 -18 21 -55 1z"/>
<path d="M3642 4198 c-7 -7 -12 -18 -12 -25 0 -7 -7 -13 -15 -13 -8 0 -18 -12
-21 -26 -7 -28 7 -44 39 -44 20 0 22 -11 5 -28 -9 -9 -3 -12 27 -12 30 0 36 3
27 12 -18 18 -15 25 13 32 18 5 25 13 25 32 0 13 -7 27 -15 30 -8 4 -15 14
-15 24 0 27 -37 39 -58 18z"/>
<path d="M384 4085 c-15 -23 -18 -24 -34 -10 -22 20 -27 19 -41 -6 -9 -18 -6
-26 27 -60 21 -21 42 -39 46 -39 13 0 58 78 58 99 0 11 -9 25 -20 31 -16 9
-22 6 -36 -15z"/>
<path d="M1740 3994 c-19 -31 -40 -62 -47 -69 -10 -10 -9 -14 6 -18 13 -3 22
3 29 18 8 17 17 21 34 18 20 -4 24 -9 20 -34 -4 -25 -1 -29 19 -29 15 0 19 3
12 8 -7 4 -13 38 -15 81 -2 41 -8 76 -13 78 -6 2 -26 -22 -45 -53z m40 -14 c0
-11 -7 -20 -15 -20 -13 0 -14 4 -5 20 6 11 13 20 15 20 3 0 5 -9 5 -20z"/>
<path d="M3630 3948 c-12 -35 -26 -67 -31 -72 -15 -16 -10 -26 10 -26 13 0 21
8 23 23 2 16 10 22 28 22 20 0 25 -5 25 -25 0 -18 6 -26 23 -28 12 -2 22 1 22
7 0 6 -4 11 -8 11 -5 0 -17 34 -27 75 -11 41 -24 75 -31 75 -6 0 -21 -28 -34
-62z m36 -25 c-11 -11 -19 6 -11 24 8 17 8 17 12 0 3 -10 2 -21 -1 -24z"/>
<path d="M412 3904 c-5 -11 -12 -44 -16 -76 -3 -31 -9 -63 -12 -72 -12 -32 13
-15 29 19 9 19 23 35 31 35 17 0 39 -34 29 -44 -3 -3 1 -6 10 -6 9 0 19 5 22
10 3 6 2 10 -3 10 -5 0 -17 19 -28 43 -10 23 -26 55 -35 71 -16 26 -18 27 -27
10z m27 -53 c8 -14 7 -20 -4 -25 -11 -4 -15 2 -15 19 0 30 6 32 19 6z"/>
<path d="M3137 3840 c-32 -45 -57 -83 -57 -85 0 -2 24 -43 54 -90 62 -99 46
-102 126 29 l41 68 -52 79 c-28 43 -52 79 -54 79 -1 0 -27 -36 -58 -80z"/>
<path d="M1058 3536 c-16 -24 -28 -49 -28 -57 -1 -8 -18 5 -39 29 l-37 43 -32
-18 c-22 -12 -34 -29 -41 -58 l-11 -40 85 -83 c47 -46 90 -80 95 -77 6 3 10 1
10 -6 0 -24 30 14 80 101 49 85 50 91 42 137 -8 46 -9 48 -39 47 -23 -1 -30 2
-26 12 3 9 -2 14 -13 14 -11 0 -30 -18 -46 -44z"/>
<path d="M4103 3498 c-25 -15 -33 -27 -33 -49 0 -26 -3 -29 -34 -29 -25 0 -38
-6 -51 -26 -9 -14 -14 -32 -11 -40 3 -9 1 -12 -4 -9 -6 4 -10 -8 -10 -28 0
-47 55 -91 106 -85 32 4 34 2 34 -24 0 -15 5 -28 11 -28 5 0 7 -5 3 -11 -5 -8
-8 -8 -13 0 -5 7 -21 1 -46 -16 l-40 -27 98 -15 c53 -8 100 -11 103 -8 4 3 -3
21 -15 40 -11 19 -21 44 -21 55 0 18 3 20 31 12 24 -7 40 -5 69 10 32 16 39
26 45 60 4 23 2 55 -5 75 -9 28 -17 35 -37 35 -21 0 -24 4 -20 21 14 52 -39
110 -100 108 -15 0 -43 -10 -60 -21z m77 -92 c0 -3 -4 -8 -10 -11 -5 -3 -10
-1 -10 4 0 6 5 11 10 11 6 0 10 -2 10 -4z m5 -96 c-3 -5 -10 -10 -16 -10 -5 0
-9 5 -9 10 0 6 7 10 16 10 8 0 12 -4 9 -10z m-10 -150 c3 -5 -1 -10 -9 -10 -9
0 -16 5 -16 10 0 6 4 10 9 10 6 0 13 -4 16 -10z"/>
<path d="M2105 3486 c-11 -7 -44 -26 -73 -41 -37 -19 -59 -39 -70 -61 -15 -33
-15 -35 8 -59 15 -16 30 -23 42 -19 14 4 18 0 18 -20 0 -20 -9 -30 -42 -47
l-43 -22 73 -20 c40 -11 75 -17 78 -15 2 3 1 13 -2 22 -5 12 -9 14 -14 6 -4
-6 -6 7 -6 28 0 21 6 44 13 51 10 9 13 9 13 -4 0 -10 10 -15 30 -15 21 0 30 5
30 16 0 8 5 12 10 9 21 -13 41 16 34 49 -8 37 -64 156 -73 156 -4 0 -15 -6
-26 -14z"/>
<path d="M3734 3255 c5 -14 -18 -45 -34 -45 -12 0 -31 36 -23 44 3 3 -3 6 -14
6 -20 0 -19 -3 11 -75 17 -41 36 -75 42 -75 6 0 19 30 28 67 10 37 22 73 28
80 8 10 4 13 -17 13 -20 0 -26 -4 -21 -15z m-14 -82 c0 -22 -2 -25 -10 -13
-13 20 -13 40 0 40 6 0 10 -12 10 -27z"/>
<path d="M3691 3015 c-18 -25 -31 -49 -29 -53 2 -4 14 -26 28 -49 24 -41 40
-54 40 -33 0 6 12 28 26 49 l26 40 -27 45 c-15 25 -28 46 -29 46 -2 0 -17 -20
-35 -45z"/>
<path d="M1661 2938 c4 -33 -2 -48 -20 -48 -19 0 -36 16 -36 34 0 14 -18 17
-35 5 -11 -8 -12 -12 -3 -16 7 -2 29 -34 49 -69 20 -36 41 -63 48 -61 6 2 15
37 20 78 4 41 13 77 20 81 6 4 -1 8 -17 8 -17 0 -27 -5 -26 -12z m-1 -88 c0
-11 -2 -20 -5 -20 -2 0 -9 9 -15 20 -9 16 -8 20 5 20 8 0 15 -9 15 -20z"/>
<path d="M1658 2689 c-27 -45 -26 -84 0 -94 11 -4 23 3 35 20 18 24 20 24 32
9 15 -21 45 -12 45 14 0 16 -67 92 -82 92 -3 0 -17 -19 -30 -41z"/>
<path d="M2338 2679 c7 -8 12 -41 12 -86 0 -40 4 -73 10 -73 5 0 28 27 50 60
22 33 45 60 50 60 18 0 10 18 -9 23 -13 3 -22 -3 -30 -19 -6 -13 -14 -24 -18
-24 -19 1 -36 20 -38 42 -1 14 -9 24 -21 26 -15 3 -17 1 -6 -9z m52 -83 c0 -8
-4 -18 -10 -21 -5 -3 -10 3 -10 14 0 12 5 21 10 21 6 0 10 -6 10 -14z"/>
<path d="M4566 2679 c4 -8 11 -45 14 -83 3 -38 10 -71 15 -73 6 -2 28 27 50
64 51 87 50 83 27 83 -13 0 -22 -9 -26 -25 -5 -20 -10 -23 -29 -16 -14 5 -22
17 -22 32 0 15 -7 25 -19 27 -13 3 -16 0 -10 -9z m54 -83 c0 -8 -4 -18 -10
-21 -5 -3 -10 3 -10 14 0 12 5 21 10 21 6 0 10 -6 10 -14z"/>
<path d="M4559 2473 c7 -14 4 -20 -20 -30 -32 -13 -39 -46 -13 -61 9 -5 17
-13 17 -18 1 -5 8 -8 15 -8 6 1 12 -2 12 -6 0 -5 -6 -11 -12 -13 -7 -3 -3 -6
9 -6 12 -1 28 7 35 17 7 10 21 21 31 25 35 13 14 67 -27 67 -18 0 -18 1 -2 19
15 17 15 19 1 25 -9 3 -25 6 -36 6 -16 0 -18 -3 -10 -17z"/>
<path d="M2296 2438 c5 -27 4 -30 -13 -26 -27 7 -53 -9 -53 -31 0 -16 26 -90
35 -99 9 -10 94 51 98 70 7 26 -11 51 -30 43 -24 -9 -10 28 15 41 22 11 21 12
-18 22 l-41 10 7 -30z"/>
</g>
</svg>
