<?xml version="1.0" standalone="no"?>
<!DOCTYPE svg PUBLIC "-//W3C//DTD SVG 20010904//EN"
 "http://www.w3.org/TR/2001/REC-SVG-20010904/DTD/svg10.dtd">
<svg version="1.0" xmlns="http://www.w3.org/2000/svg"
 width="1280.000000pt" height="720.000000pt" viewBox="0 0 1280.000000 720.000000"
 preserveAspectRatio="xMidYMid meet">

<g transform="translate(0.000000,720.000000) scale(0.100000,-0.100000)"
fill="#000000" stroke="none">
<path d="M2385 7193 c-133 -7 -383 -58 -513 -104 -114 -40 -306 -139 -389
-200 -37 -28 -86 -63 -108 -77 -78 -50 -335 -289 -335 -312 0 -4 -7 -7 -15 -7
-8 0 -12 4 -9 8 2 4 0 11 -6 14 -6 4 -10 3 -9 -2 4 -22 -3 -24 -22 -7 -11 10
-20 14 -19 9 5 -24 -1 -27 -21 -9 -11 10 -20 14 -19 9 5 -24 -1 -27 -21 -9
-11 10 -20 14 -19 9 5 -24 -1 -27 -21 -9 -11 10 -20 14 -19 9 5 -24 -1 -27
-21 -9 -11 10 -20 14 -19 9 5 -24 -1 -27 -21 -9 -11 10 -20 14 -19 9 5 -24 -1
-27 -21 -9 -11 10 -20 14 -19 9 5 -24 -1 -27 -21 -9 -11 10 -20 14 -19 9 5
-24 -1 -27 -21 -9 -11 10 -20 14 -19 9 5 -24 -1 -27 -21 -9 -11 10 -20 14 -19
9 5 -24 -1 -27 -21 -9 -11 10 -20 14 -19 9 5 -24 -1 -27 -21 -9 -11 10 -20 14
-19 9 5 -24 -1 -27 -21 -9 -11 10 -20 14 -19 9 5 -24 -1 -27 -21 -9 -11 10
-20 14 -19 9 5 -24 -1 -27 -21 -9 -11 10 -20 14 -19 9 5 -24 -1 -27 -21 -9
-11 10 -20 14 -19 9 5 -24 -1 -27 -21 -9 -11 10 -20 14 -19 9 5 -24 -1 -27
-21 -9 -11 10 -20 14 -19 9 5 -24 -1 -27 -21 -9 -11 10 -20 14 -19 9 5 -24 -1
-27 -21 -9 -11 10 -20 14 -19 9 5 -24 -1 -27 -21 -9 -11 10 -20 14 -19 9 5
-24 -1 -27 -21 -9 -11 10 -20 14 -19 9 5 -24 -1 -27 -21 -9 -11 10 -20 14 -19
9 5 -24 -1 -27 -21 -9 -11 10 -20 14 -19 9 5 -24 -1 -27 -20 -10 -20 18 -20
14 -20 -3244 l0 -3261 1196 0 1197 0 -53 42 c-199 159 -216 182 -167 229 12
12 16 19 10 15 -19 -11 -16 18 4 42 10 12 64 36 123 56 58 19 179 60 269 91
90 30 165 54 167 53 7 -7 -191 -380 -249 -470 l-38 -58 63 1 c48 0 58 3 43 10
-15 7 -10 8 20 4 124 -17 131 -17 111 -4 -11 7 -39 17 -63 23 -23 6 -43 16
-43 21 -1 19 39 16 109 -8 73 -26 96 -23 39 5 -18 8 -60 23 -93 33 -54 16 -58
19 -38 28 21 9 30 8 173 -29 18 -5 22 -4 15 4 -6 6 -51 24 -100 41 -82 26 -87
30 -61 36 20 6 51 1 100 -15 104 -33 105 -33 56 -6 -25 13 -71 32 -103 41 -31
9 -57 19 -57 22 0 10 103 -8 159 -27 30 -11 56 -18 59 -16 7 8 -92 54 -131 61
-20 4 -41 13 -48 21 -17 21 36 18 106 -6 32 -11 63 -20 69 -20 19 1 -57 39
-111 56 -29 8 -53 17 -53 19 0 10 90 1 137 -16 31 -10 59 -17 61 -14 8 8 2 11
-87 42 -67 24 -79 31 -59 35 28 5 117 -15 160 -37 24 -12 28 -11 28 1 0 8 -6
16 -12 18 -180 53 -185 55 -167 67 23 15 61 10 123 -16 33 -13 62 -22 65 -20
8 9 -7 17 -89 50 -72 29 -78 33 -54 39 27 7 149 -27 159 -45 4 -5 14 -9 23 -9
35 1 -28 38 -109 65 -56 19 -77 30 -68 36 22 14 62 10 124 -11 67 -23 65 -23
65 -11 0 10 -122 61 -147 61 -13 0 -14 3 -5 12 10 10 25 9 70 -4 31 -8 65 -19
75 -23 9 -4 17 -3 17 3 0 6 -23 22 -51 36 -39 19 -48 27 -35 32 9 4 36 -1 59
-10 49 -18 57 -19 57 -7 0 5 -14 14 -31 22 -31 12 -31 13 -10 21 13 4 34 5 47
2 18 -5 23 -3 19 7 -3 10 51 32 201 83 113 37 206 67 208 65 4 -5 -119 -254
-275 -556 -65 -127 -104 -213 -96 -213 7 0 100 170 205 378 106 207 199 385
206 395 16 20 14 20 511 188 381 130 420 137 500 100 22 -11 135 -95 250 -188
116 -92 306 -244 422 -336 117 -93 214 -176 217 -185 13 -48 16 -94 7 -110
-13 -25 -44 -37 -361 -146 l-275 -95 2662 0 2663 -1 36 25 c45 31 49 31 99 0
52 -32 160 -36 170 -6 6 20 60 46 112 55 27 4 41 -1 82 -34 l50 -40 453 1
c249 0 487 4 528 9 66 8 1116 89 1163 90 16 0 17 157 17 3204 0 2165 -3 3207
-10 3211 -6 4 -10 3 -9 -2 4 -22 -3 -24 -23 -7 -12 10 -18 14 -15 7 9 -15 -9
-27 -18 -13 -5 8 -12 7 -23 -2 -10 -8 -13 -9 -9 -1 4 6 3 15 -3 18 -6 4 -10 3
-9 -2 4 -22 -3 -24 -22 -7 -11 10 -20 14 -19 9 5 -24 -1 -27 -21 -9 -11 10
-20 14 -19 9 5 -24 -1 -27 -21 -9 -11 10 -20 14 -19 9 5 -24 -1 -27 -21 -9
-11 10 -20 14 -19 9 5 -24 -1 -27 -21 -9 -11 10 -20 14 -19 9 5 -24 -1 -27
-21 -9 -11 10 -20 14 -19 9 5 -24 -1 -27 -21 -9 -11 10 -20 14 -19 9 5 -24 -1
-27 -21 -9 -11 10 -20 14 -19 9 5 -24 -1 -27 -21 -9 -11 10 -20 14 -19 9 5
-24 -1 -27 -21 -9 -11 10 -20 14 -19 9 5 -24 -1 -27 -21 -9 -11 10 -20 14 -19
9 5 -24 -1 -27 -21 -9 -11 10 -20 14 -19 9 5 -24 -1 -27 -21 -9 -11 10 -20 14
-19 9 5 -24 -1 -27 -21 -9 -11 10 -20 14 -19 9 5 -24 -1 -27 -21 -9 -11 10
-20 14 -19 9 5 -24 -1 -27 -21 -9 -11 10 -20 14 -19 9 5 -24 -1 -27 -21 -9
-11 10 -20 14 -19 9 5 -24 -1 -27 -21 -9 -11 10 -20 14 -19 9 5 -24 -1 -27
-21 -9 -11 10 -20 14 -19 9 5 -24 -1 -27 -21 -9 -11 10 -20 14 -19 9 5 -24 -1
-27 -21 -9 -11 10 -20 14 -19 9 5 -24 -1 -27 -21 -9 -11 10 -20 14 -19 9 5
-24 -1 -27 -21 -9 -11 10 -20 14 -19 9 5 -24 -1 -27 -21 -9 -11 10 -20 14 -19
9 5 -24 -1 -27 -21 -9 -14 12 -19 14 -17 5 2 -9 -6 -15 -22 -16 -17 -1 -27 4
-28 14 -12 100 -135 318 -249 441 -76 83 -165 152 -264 205 -81 43 -87 45
-171 45 -66 0 -86 -3 -82 -12 3 -7 140 -116 306 -243 370 -283 344 -262 338
-268 -6 -7 -351 250 -380 283 -27 31 -320 244 -326 237 -7 -6 127 -117 266
-222 58 -43 107 -82 110 -85 3 -4 68 -53 145 -110 147 -109 221 -170 206 -170
-14 0 -150 100 -326 239 -306 243 -454 351 -477 351 -16 0 2 -15 156 -131 66
-49 116 -89 110 -89 -20 0 -99 53 -204 135 -60 48 -115 85 -121 83 -14 -5 86
-90 189 -162 41 -29 67 -52 59 -54 -8 -2 -82 47 -163 107 -82 61 -153 111
-159 110 -14 0 40 -46 160 -137 55 -41 102 -77 104 -79 2 -1 2 -6 -2 -9 -9 -9
-49 18 -189 125 -67 51 -129 96 -137 99 -26 10 92 -93 188 -163 78 -57 106
-85 86 -85 -3 0 -53 36 -111 81 -58 45 -108 79 -110 76 -3 -3 4 -13 15 -24 19
-18 18 -18 -57 -19 -58 0 -89 -6 -125 -23 -68 -31 -133 -100 -168 -176 -24
-54 -29 -77 -29 -142 1 -68 5 -87 34 -145 18 -37 35 -66 38 -63 3 3 10 0 16
-8 9 -10 4 -13 -23 -13 -18 0 -32 4 -29 7 2 4 0 11 -6 14 -6 4 -10 3 -9 -2 4
-22 -3 -24 -23 -7 -12 10 -18 14 -15 7 9 -15 -9 -27 -18 -13 -5 8 -12 7 -23
-2 -10 -8 -13 -9 -9 -1 4 6 3 15 -3 18 -6 4 -9 1 -8 -5 4 -16 -30 -22 -39 -8
-4 7 -1 8 8 4 8 -4 3 1 -11 13 -24 19 -25 24 -24 138 1 102 4 128 28 193 56
157 155 274 277 330 l44 20 -34 0 c-68 0 -214 -117 -275 -220 -64 -111 -94
-243 -81 -360 12 -108 11 -125 -5 -126 -8 0 -23 7 -33 15 -10 9 -18 11 -17 6
5 -24 -1 -27 -21 -9 -11 10 -20 14 -19 9 5 -24 -1 -27 -21 -9 -11 10 -20 14
-19 9 5 -24 -1 -27 -21 -9 -11 10 -20 14 -19 9 5 -24 -1 -27 -21 -9 -11 10
-20 14 -19 9 5 -24 -1 -27 -21 -9 -11 10 -20 14 -19 9 5 -24 -1 -27 -21 -9
-11 10 -20 14 -19 9 5 -24 -1 -27 -21 -9 -11 10 -20 14 -19 9 5 -24 -1 -27
-21 -9 -11 10 -20 14 -19 9 5 -24 -1 -27 -21 -9 -11 10 -20 14 -19 9 5 -24 -1
-27 -21 -9 -11 10 -20 14 -19 9 5 -24 -1 -27 -21 -9 -11 10 -20 14 -19 9 5
-24 -1 -27 -21 -9 -11 10 -20 14 -19 9 5 -24 -1 -27 -21 -9 -11 10 -20 14 -19
9 5 -24 -1 -27 -21 -9 -11 10 -20 14 -19 9 5 -24 -1 -27 -21 -9 -11 10 -20 14
-19 9 5 -24 -1 -27 -21 -9 -11 10 -20 14 -19 9 5 -24 -1 -27 -21 -9 -11 10
-20 14 -19 9 5 -24 -1 -27 -21 -9 -11 10 -20 14 -19 9 5 -24 -1 -27 -21 -9
-11 10 -20 14 -19 9 5 -24 -1 -27 -21 -9 -11 10 -20 14 -19 9 5 -24 -1 -27
-21 -9 -11 10 -20 14 -19 9 5 -24 -1 -27 -21 -9 -11 10 -20 14 -19 9 5 -24 -1
-27 -21 -9 -11 10 -20 14 -19 9 5 -24 -1 -27 -21 -9 -11 10 -20 14 -19 9 5
-24 -1 -27 -21 -9 -11 10 -20 14 -19 9 5 -24 -1 -27 -21 -9 -11 10 -20 14 -19
9 5 -24 -1 -27 -21 -9 -11 10 -20 14 -19 9 5 -24 -1 -27 -21 -9 -11 10 -20 14
-19 9 5 -24 -1 -27 -21 -9 -11 10 -20 14 -19 9 5 -24 -1 -27 -21 -9 -11 10
-20 14 -19 9 5 -24 -1 -27 -21 -9 -11 10 -20 14 -19 9 5 -24 -1 -27 -21 -9
-11 10 -20 14 -19 9 5 -24 -1 -27 -21 -9 -11 10 -20 14 -19 9 5 -24 -1 -27
-21 -9 -11 10 -20 14 -19 9 5 -24 -1 -27 -21 -9 -11 10 -20 14 -19 9 5 -24 -1
-27 -21 -9 -11 10 -20 14 -19 9 5 -24 -1 -27 -21 -9 -11 10 -20 14 -19 9 5
-24 -1 -27 -21 -9 -11 10 -20 14 -19 9 5 -24 -1 -27 -21 -9 -11 10 -20 14 -19
9 5 -24 -1 -27 -21 -9 -11 10 -20 14 -19 9 5 -22 -1 -27 -17 -14 -11 10 -14
10 -9 2 4 -8 1 -13 -8 -13 -9 0 -13 -6 -10 -13 2 -7 -2 -26 -10 -42 -8 -16
-13 -32 -10 -37 3 -4 1 -8 -4 -8 -5 0 -14 -21 -20 -47 -5 -27 -38 -149 -72
-273 -34 -124 -67 -247 -75 -275 -25 -98 -214 -792 -230 -849 -22 -75 -40 -91
-105 -99 -42 -5 -60 -3 -80 11 -58 38 -908 814 -920 839 -7 16 -15 55 -17 88
-5 53 4 96 65 325 72 273 86 328 87 345 0 6 4 15 8 21 3 6 -3 20 -14 30 -11
10 -20 14 -19 9 5 -24 -1 -27 -21 -9 -11 10 -20 14 -19 9 5 -24 -1 -27 -21 -9
-11 10 -20 14 -19 9 5 -24 -1 -27 -21 -9 -11 10 -20 14 -19 9 5 -24 -1 -27
-21 -9 -11 10 -20 14 -19 9 5 -24 -1 -27 -21 -9 -11 10 -20 14 -19 9 5 -24 -1
-27 -21 -9 -11 10 -20 14 -19 9 5 -24 -1 -27 -21 -9 -11 10 -20 14 -19 9 5
-24 -1 -27 -21 -9 -11 10 -20 14 -19 9 5 -24 -1 -27 -21 -9 -11 10 -20 14 -19
9 5 -24 -1 -27 -21 -9 -11 10 -20 14 -19 9 5 -24 -1 -27 -21 -9 -11 10 -20 14
-19 9 5 -24 -1 -27 -21 -9 -11 10 -20 14 -19 9 5 -24 -1 -27 -21 -9 -11 10
-20 14 -19 9 5 -24 -1 -27 -21 -9 -11 10 -20 14 -19 9 5 -24 -1 -27 -21 -9
-11 10 -20 14 -19 9 5 -24 -1 -27 -21 -9 -11 10 -20 14 -19 9 5 -24 -1 -27
-21 -9 -11 10 -20 14 -19 9 5 -24 -1 -27 -21 -9 -11 10 -20 14 -19 9 5 -24 -1
-27 -21 -9 -11 10 -20 14 -19 9 5 -24 -1 -27 -21 -9 -11 10 -20 14 -19 9 5
-24 -1 -27 -21 -9 -11 10 -20 14 -19 9 5 -24 -1 -27 -21 -9 -11 10 -20 14 -19
9 5 -24 -1 -27 -21 -9 -11 10 -20 14 -19 9 5 -24 -1 -27 -21 -9 -11 10 -20 14
-19 9 5 -24 -1 -27 -21 -9 -11 10 -20 14 -19 9 5 -24 -1 -27 -21 -9 -11 10
-20 14 -19 9 5 -24 -1 -27 -21 -9 -11 10 -20 14 -19 9 5 -24 -1 -27 -21 -9
-11 10 -20 14 -19 9 5 -24 -1 -27 -21 -9 -11 10 -20 14 -19 9 5 -24 -1 -27
-21 -9 -11 10 -20 14 -19 9 5 -24 -1 -27 -21 -9 -11 10 -20 14 -19 9 5 -24 -1
-27 -21 -9 -11 10 -20 14 -19 9 5 -24 -1 -27 -21 -9 -11 10 -20 14 -19 9 5
-24 -1 -27 -21 -9 -11 10 -20 14 -19 9 5 -24 -1 -27 -21 -9 -11 10 -20 14 -19
9 5 -24 -1 -27 -21 -9 -11 10 -20 14 -19 9 5 -24 -1 -27 -21 -9 -11 10 -20 14
-19 9 5 -24 -1 -27 -21 -9 -11 10 -20 14 -19 9 5 -24 -1 -27 -21 -9 -11 10
-20 14 -19 9 5 -24 -1 -27 -21 -9 -11 10 -20 14 -19 9 5 -24 -1 -27 -21 -9
-11 10 -20 14 -19 9 5 -24 -1 -27 -21 -9 -11 10 -20 14 -19 9 5 -24 -1 -27
-21 -9 -11 10 -20 14 -19 9 5 -24 -1 -27 -21 -9 -11 10 -20 14 -19 9 5 -24 -2
-27 -22 -9 -12 10 -18 14 -15 7 9 -15 -9 -27 -18 -13 -5 8 -12 7 -23 -2 -10
-8 -13 -9 -9 -1 4 6 3 15 -3 18 -6 4 -10 3 -9 -2 4 -22 -3 -24 -22 -7 -11 10
-20 14 -19 9 5 -24 -1 -27 -21 -9 -11 10 -20 14 -19 9 5 -24 -1 -27 -21 -9
-11 10 -20 14 -19 9 5 -24 -1 -27 -21 -9 -11 10 -20 14 -19 9 5 -24 -1 -27
-21 -9 -11 10 -20 14 -19 9 5 -24 -1 -27 -21 -9 -11 10 -20 14 -19 9 5 -24 -1
-27 -21 -9 -11 10 -20 14 -19 9 5 -24 -1 -27 -21 -9 -11 10 -20 14 -19 9 5
-24 -1 -27 -21 -9 -11 10 -20 14 -19 9 5 -24 -1 -27 -21 -9 -11 10 -20 14 -19
9 5 -24 -1 -27 -21 -9 -11 10 -20 14 -19 9 5 -24 -1 -27 -21 -9 -11 10 -20 14
-19 9 5 -24 -1 -27 -21 -9 -11 10 -20 14 -19 9 5 -24 -1 -27 -21 -9 -11 10
-20 14 -19 9 5 -24 -1 -27 -21 -9 -11 10 -20 14 -19 9 5 -24 -1 -27 -21 -9
-11 10 -20 14 -19 9 5 -24 -1 -27 -21 -9 -11 10 -20 14 -19 9 5 -24 -1 -27
-21 -9 -11 10 -20 14 -19 9 5 -24 -1 -27 -21 -9 -11 10 -20 14 -19 9 5 -24 -1
-27 -21 -9 -11 10 -20 14 -19 9 5 -24 -1 -27 -21 -9 -11 10 -20 14 -19 9 5
-24 -1 -27 -21 -9 -11 10 -20 14 -19 9 5 -24 -1 -27 -21 -9 -11 10 -20 14 -19
9 5 -24 -1 -27 -21 -9 -13 11 -19 13 -17 5 2 -7 -4 -15 -13 -16 -10 -2 -75 56
-160 142 -79 79 -157 151 -172 159 -16 9 -61 37 -101 64 -89 60 -241 143 -321
176 -33 14 -69 29 -80 34 -42 18 -185 60 -290 84 -177 41 -343 52 -580 39z
m8733 -152 c53 -42 131 -102 172 -133 89 -66 182 -150 135 -122 -16 9 -50 34
-75 54 -25 20 -115 91 -200 158 -85 67 -171 136 -190 153 l-35 31 48 -32 c27
-18 92 -67 145 -109z m-8655 102 c-13 -2 -33 -2 -45 0 -13 2 -3 4 22 4 25 0
35 -2 23 -4z m240 0 c-7 -2 -19 -2 -25 0 -7 3 -2 5 12 5 14 0 19 -2 13 -5z
m8438 -76 c137 -99 224 -169 244 -196 16 -21 11 -20 -25 10 -25 19 -65 51 -90
70 -25 19 -47 37 -50 40 -3 3 -45 35 -94 72 -49 37 -85 67 -80 67 5 0 48 -28
95 -63z m-8944 47 c-3 -3 -12 -4 -19 -1 -8 3 -5 6 6 6 11 1 17 -2 13 -5z m613
-13 c32 -10 31 -10 -15 -5 -27 4 -120 10 -205 14 l-155 8 170 -3 c94 -2 186
-8 205 -14z m-435 -1 c-16 -4 -46 -8 -65 -8 l-35 1 35 7 c19 4 49 7 65 8 l30
0 -30 -8z m612 4 c-3 -3 -12 -4 -19 -1 -8 3 -5 6 6 6 11 1 17 -2 13 -5z m-734
-21 c-7 -2 -21 -2 -30 0 -10 3 -4 5 12 5 17 0 24 -2 18 -5z m650 0 c-7 -2 -19
-2 -25 0 -7 3 -2 5 12 5 14 0 19 -2 13 -5z m-710 -10 c-7 -2 -19 -2 -25 0 -7
3 -2 5 12 5 14 0 19 -2 13 -5z m357 -3 c-102 -4 -218 -12 -258 -19 -41 -7 -76
-11 -78 -8 -5 4 79 20 161 30 17 2 104 4 195 4 l165 -1 -185 -6z m440 0 c20
-6 21 -8 5 -8 -11 0 -33 4 -50 8 -27 7 -27 8 -5 8 14 0 36 -4 50 -8z m-853 -6
c-3 -3 -12 -4 -19 -1 -8 3 -5 6 6 6 11 1 17 -2 13 -5z m671 -1 c-10 -2 -26 -2
-35 0 -10 3 -2 5 17 5 19 0 27 -2 18 -5z m-709 -7 c-2 -2 -17 -6 -34 -10 -22
-5 -26 -4 -15 4 14 9 59 15 49 6z m854 -17 c56 -12 109 -25 117 -31 11 -7 8
-8 -10 -3 -14 3 -68 15 -120 26 -102 21 -123 27 -102 28 7 1 59 -8 115 -20z
m107 11 c18 -12 2 -12 -25 0 -13 6 -15 9 -5 9 8 0 22 -4 30 -9z m107 4 c-3 -3
-12 -4 -19 -1 -8 3 -5 6 6 6 11 1 17 -2 13 -5z m-1257 -14 c-8 -5 -19 -10 -25
-10 -5 0 -3 5 5 10 8 5 20 10 25 10 6 0 3 -5 -5 -10z m277 -6 c-3 -3 -12 -4
-19 -1 -8 3 -5 6 6 6 11 1 17 -2 13 -5z m920 0 c-3 -3 -12 -4 -19 -1 -8 3 -5
6 6 6 11 1 17 -2 13 -5z m-1257 -16 c-14 -6 -50 -22 -80 -35 -30 -13 -50 -19
-44 -13 12 12 124 60 139 59 6 0 -1 -5 -15 -11z m137 6 c-3 -3 -12 -4 -19 -1
-8 3 -5 6 6 6 11 1 17 -2 13 -5z m156 -1 c-7 -2 -19 -2 -25 0 -7 3 -2 5 12 5
14 0 19 -2 13 -5z m475 0 c-32 -2 -84 -2 -115 0 -32 2 -6 3 57 3 63 0 89 -1
58 -3z m547 -3 c13 -5 14 -9 5 -9 -8 0 -24 4 -35 9 -13 5 -14 9 -5 9 8 0 24
-4 35 -9z m7504 -20 c20 -10 48 -31 62 -47 22 -24 25 -33 18 -59 l-9 -31 -39
38 c-62 58 -157 80 -236 54 -15 -5 -13 -2 5 10 l25 16 -35 -5 -35 -5 30 14
c25 11 26 13 10 17 -14 3 -6 8 25 16 57 14 132 6 179 -18z m-8256 13 c-13 -2
-35 -2 -50 0 -16 2 -5 4 22 4 28 0 40 -2 28 -4z m372 -2 c35 -8 36 -9 10 -9
-16 0 -50 3 -75 7 -42 8 -43 9 -10 9 19 1 53 -3 75 -7z m515 -6 c14 -8 21 -14
15 -14 -5 0 -21 6 -35 14 -14 8 -20 14 -15 14 6 0 21 -6 35 -14z m-1233 -1
c-3 -3 -12 -4 -19 -1 -8 3 -5 6 6 6 11 1 17 -2 13 -5z m246 -1 c-7 -2 -21 -2
-30 0 -10 3 -4 5 12 5 17 0 24 -2 18 -5z m917 -8 c14 -8 21 -14 15 -14 -5 0
-21 6 -35 14 -14 8 -20 14 -15 14 6 0 21 -6 35 -14z m-315 -5 c42 -11 1 -11
-50 -1 -34 7 -35 9 -10 9 17 0 44 -4 60 -8z m293 -26 c94 -35 232 -100 232
-108 0 -3 -35 11 -77 31 -43 20 -121 51 -172 70 -52 18 -97 36 -100 38 -12 13
29 2 117 -31z m-1219 22 c-2 -1 -47 -17 -99 -35 -173 -58 -374 -179 -534 -321
-65 -58 -104 -85 -51 -35 96 90 188 164 268 215 83 53 101 70 74 70 -11 0
-126 -72 -173 -109 -11 -9 -2 1 20 22 42 39 72 58 185 116 108 55 131 64 125
46 -8 -20 1 -19 87 10 66 21 110 31 98 21z m168 -12 c-3 -3 -12 -4 -19 -1 -8
3 -5 6 6 6 11 1 17 -2 13 -5z m907 -15 c21 -6 36 -12 34 -15 -3 -2 -38 5 -79
16 -41 11 -56 17 -34 14 22 -3 57 -10 79 -15z m322 5 c18 -14 18 -14 -6 -3
-31 14 -36 19 -24 19 6 0 19 -7 30 -16z m6997 -31 c-22 -21 -47 -49 -56 -63
-16 -23 -16 -22 0 8 16 30 76 92 89 92 3 0 -12 -17 -33 -37z m-6903 -54 c14
-11 -17 1 -67 26 -51 25 -93 47 -93 50 0 8 135 -56 160 -76z m-1465 61 c-27
-12 -43 -12 -25 0 8 5 22 9 30 9 10 0 8 -3 -5 -9z m8610 -20 c22 -12 58 -41
80 -65 l41 -45 69 25 c116 41 193 31 267 -34 54 -47 82 -120 75 -200 -3 -44
-10 -69 -22 -77 -9 -7 -15 -16 -13 -20 2 -4 -5 -8 -15 -10 -9 -1 -15 2 -12 6
3 5 1 12 -5 15 -6 4 -9 1 -8 -5 2 -7 -5 -14 -15 -15 -9 -2 -15 1 -12 5 3 5 1
12 -5 15 -6 4 -9 1 -8 -5 2 -7 -5 -14 -15 -15 -9 -2 -15 1 -12 5 3 5 1 12 -5
15 -6 4 -9 1 -8 -5 2 -7 -5 -14 -15 -15 -9 -2 -15 1 -12 5 3 5 1 12 -5 15 -6
4 -9 1 -8 -5 2 -7 -5 -14 -15 -15 -9 -2 -15 1 -12 5 3 5 1 12 -5 15 -6 4 -9 1
-8 -5 2 -7 -5 -14 -15 -15 -9 -2 -15 1 -12 5 3 5 1 12 -5 15 -6 4 -9 1 -8 -5
2 -7 -5 -14 -15 -15 -9 -2 -15 1 -12 5 3 5 1 12 -5 15 -6 4 -9 1 -8 -5 2 -7
-5 -14 -15 -15 -9 -2 -15 1 -12 5 3 5 1 12 -5 15 -6 4 -9 1 -8 -5 2 -7 -5 -14
-15 -15 -9 -2 -15 1 -12 5 3 5 1 12 -5 15 -6 4 -9 1 -8 -5 2 -7 -5 -14 -15
-15 -9 -2 -15 1 -12 5 3 5 1 12 -5 15 -6 4 -9 1 -8 -5 2 -7 -5 -14 -15 -15 -9
-2 -15 1 -12 5 3 5 1 12 -5 15 -6 4 -9 1 -8 -5 2 -7 -5 -14 -15 -15 -9 -2 -15
1 -12 5 3 5 1 12 -5 15 -6 4 -9 1 -8 -5 2 -7 -5 -14 -15 -15 -9 -2 -15 1 -12
5 3 5 1 12 -5 15 -6 4 -9 1 -8 -6 4 -17 -50 -19 -56 -3 -3 8 -33 26 -68 42
-69 32 -99 60 -116 112 -25 70 -10 147 39 211 54 69 146 89 224 49z m436 -11
c86 -43 160 -138 180 -227 13 -63 1 -116 -28 -120 -19 -3 -21 3 -25 70 -5 83
-28 136 -80 184 -35 34 -88 64 -111 64 -7 0 -14 7 -14 15 0 8 9 15 21 15 20 1
19 2 -4 16 l-25 15 25 -7 c14 -4 41 -15 61 -25z m-721 17 c0 -2 -8 -10 -17
-17 -16 -13 -17 -12 -4 4 13 16 21 21 21 13z m-8403 -12 c-3 -3 -12 -4 -19 -1
-8 3 -5 6 6 6 11 1 17 -2 13 -5z m-37 -9 c0 -8 -73 -36 -78 -30 -3 2 10 11 29
19 36 16 49 19 49 11z m1340 -10 c14 -8 21 -14 15 -14 -5 0 -21 6 -35 14 -14
8 -20 14 -15 14 6 0 21 -6 35 -14z m275 5 c3 -6 -1 -7 -9 -4 -18 7 -21 14 -7
14 6 0 13 -4 16 -10z m-1915 -4 c0 -2 -7 -7 -16 -10 -8 -3 -12 -2 -9 4 6 10
25 14 25 6z m9337 -2 c-3 -3 -12 -4 -19 -1 -8 3 -5 6 6 6 11 1 17 -2 13 -5z
m-7342 -44 c3 -5 -10 -1 -29 11 -20 12 -36 23 -36 25 0 7 58 -25 65 -36z
m-275 7 c13 -5 13 -6 -1 -6 -8 -1 -24 6 -35 15 -19 15 -19 15 1 6 11 -5 27
-12 35 -15z m-1535 -5 c-72 -43 -168 -91 -143 -72 32 25 149 89 163 90 6 0 -3
-8 -20 -18z m984 -6 c40 5 49 3 55 -11 5 -13 2 -16 -10 -11 -8 3 -38 6 -65 6
-41 0 -47 2 -42 17 4 11 8 13 11 5 3 -9 18 -11 51 -6z m796 -21 l20 -16 -20
10 c-11 5 -29 17 -40 26 l-20 16 20 -10 c11 -5 29 -17 40 -26z m-1020 6 c-2
-4 51 -13 118 -20 67 -7 171 -24 231 -38 75 -18 110 -22 115 -15 9 15 51 3 45
-12 -3 -8 18 -23 54 -39 62 -28 98 -34 104 -17 2 6 8 6 18 0 13 -8 12 -10 -3
-10 -33 0 -6 -22 72 -57 82 -37 201 -111 201 -125 0 -5 -6 -6 -12 -1 -7 4 -18
8 -25 9 -7 1 -38 18 -70 37 -205 123 -462 212 -690 238 -178 20 -466 -10 -638
-66 -110 -36 -309 -131 -372 -176 -48 -36 -111 -60 -98 -38 4 5 11 7 16 4 5
-4 9 -2 9 3 0 34 246 163 430 226 112 38 165 48 353 68 64 7 117 16 117 20 0
4 -33 9 -72 9 -58 2 -65 3 -33 8 49 7 137 2 130 -8z m835 4 c17 -9 30 -18 30
-21 0 -4 -59 23 -69 32 -10 9 13 3 39 -11z m150 -31 c0 -2 -13 2 -30 11 -16 9
-30 18 -30 21 0 2 14 -2 30 -11 17 -9 30 -18 30 -21z m142 -4 c26 -19 47 -38
48 -42 0 -4 -25 11 -55 34 -30 22 -55 43 -55 45 0 8 13 0 62 -37z m-2192 26
c0 -2 -8 -10 -17 -17 -16 -13 -17 -12 -4 4 13 16 21 21 21 13z m853 -3 c-7 -2
-19 -2 -25 0 -7 3 -2 5 12 5 14 0 19 -2 13 -5z m1355 -80 c33 -23 109 -90 169
-149 59 -58 100 -101 91 -94 -9 6 -26 9 -37 5 -11 -3 -23 0 -27 6 -5 9 -2 10
9 6 35 -13 15 22 -45 80 -73 69 -104 89 -111 70 -3 -9 -7 -9 -20 1 -9 8 -13
20 -11 27 4 8 -18 32 -55 61 -34 26 -61 49 -61 52 0 2 8 -2 19 -9 10 -8 46
-33 79 -56z m7710 -73 c40 -33 70 -60 66 -60 -24 0 -224 163 -224 183 0 5 19
-7 43 -27 23 -20 75 -63 115 -96z m-7756 63 c26 -19 48 -37 48 -40 0 -3 -6 -1
-12 4 -7 5 -39 26 -70 48 -32 21 -58 40 -58 42 0 6 42 -18 92 -54z m-112 11
c0 -2 -9 0 -20 6 -11 6 -20 13 -20 16 0 2 9 0 20 -6 11 -6 20 -13 20 -16z
m-2160 2 c0 -2 -8 -10 -17 -17 -16 -13 -17 -12 -4 4 13 16 21 21 21 13z m2191
-23 c13 -16 12 -17 -3 -4 -10 7 -18 15 -18 17 0 8 8 3 21 -13z m294 -72 c22
-19 42 -39 44 -45 2 -5 -23 13 -55 42 -32 28 -70 61 -84 73 -14 12 -7 9 15 -7
22 -15 58 -43 80 -63z m-2461 58 c-10 -11 -28 -25 -39 -30 -11 -6 -4 4 15 21
40 35 52 39 24 9z m156 7 c0 -2 -12 -11 -27 -20 l-28 -17 24 20 c23 21 31 25
31 17z m2195 -141 c43 -42 49 -49 15 -19 -30 28 -83 72 -117 99 -35 26 -63 50
-63 52 0 12 105 -71 165 -132z m7585 96 c57 -42 135 -105 138 -114 2 -4 7 -5
12 -2 4 3 11 -2 14 -10 7 -19 -12 -10 -99 48 -70 47 -103 75 -117 101 -12 21
-5 18 52 -23z m-9840 5 c0 -2 -8 -10 -17 -17 -16 -13 -17 -12 -4 4 13 16 21
21 21 13z m1080 -12 c0 -2 -14 -4 -31 -4 -16 0 -28 4 -25 9 5 8 56 3 56 -5z
m205 -4 c4 -6 15 -8 25 -5 30 9 141 -14 168 -36 28 -21 23 -23 -28 -10 -60 16
-130 21 -130 11 0 -6 8 -10 17 -10 9 0 14 -2 12 -4 -2 -3 -29 -1 -59 4 -38 5
-45 8 -22 9 52 2 37 19 -24 27 -37 4 -51 9 -43 15 19 12 77 11 84 -1z m-1455
-3 c0 -2 -15 -16 -32 -33 l-33 -29 29 33 c28 30 36 37 36 29z m1148 -4 c-10
-2 -28 -2 -40 0 -13 2 -5 4 17 4 22 1 32 -1 23 -4z m8877 -61 c-7 -8 -59 38
-61 55 -2 10 10 3 32 -18 18 -18 32 -35 29 -37z m-7476 -56 c1 -11 -112 94
-118 109 -2 5 23 -15 56 -45 34 -30 61 -59 62 -64z m-1556 97 c-7 -2 -19 -2
-25 0 -7 3 -2 5 12 5 14 0 19 -2 13 -5z m345 -10 c-32 -2 -84 -2 -115 0 -32 2
-6 3 57 3 63 0 89 -1 58 -3z m754 -13 c18 -11 29 -20 23 -20 -16 1 -82 39 -68
40 7 0 27 -9 45 -20z m-2192 7 c0 -2 -12 -14 -27 -28 l-28 -24 24 28 c23 25
31 32 31 24z m1193 -4 c-7 -2 -19 -2 -25 0 -7 3 -2 5 12 5 14 0 19 -2 13 -5z
m-1013 -6 c0 -2 -10 -12 -22 -23 l-23 -19 19 23 c18 21 26 27 26 19z m10142
-51 l11 -21 -24 20 c-39 33 -49 43 -49 50 0 12 51 -29 62 -49z m-217 6 c-6 -7
-45 19 -45 29 0 5 11 2 24 -8 13 -10 23 -19 21 -21z m-8780 -2 l16 -30 -56 0
c-54 0 -55 0 -55 30 0 28 2 30 40 30 34 0 42 -4 55 -30z m142 24 c26 -5 29 -9
25 -36 -4 -25 -8 -29 -26 -24 -11 3 -39 6 -60 6 -37 0 -38 1 -23 18 10 10 17
24 17 30 0 13 22 15 67 6z m-275 -34 c4 -28 2 -30 -26 -31 -17 -1 -41 -3 -53
-4 -17 -2 -23 3 -23 16 0 11 -1 22 -2 26 -3 8 40 20 78 22 17 1 23 -6 26 -29z
m414 11 c8 -4 9 -14 3 -28 -7 -18 -15 -22 -41 -20 -29 2 -33 6 -36 35 -3 31
-2 32 30 25 18 -3 38 -9 44 -12z m319 -7 c19 -3 40 -15 45 -25 9 -16 3 -15
-47 8 -56 25 -85 42 -51 30 9 -3 33 -9 53 -13z m825 -9 c13 -14 19 -25 13 -25
-5 0 -20 11 -33 25 -13 14 -19 25 -13 25 5 0 20 -11 33 -25z m-1706 -19 c7
-26 6 -28 -9 -16 -13 11 -15 11 -13 1 2 -8 -5 -15 -15 -16 -9 -2 -15 1 -12 5
3 5 0 12 -6 16 -7 4 -9 3 -5 -4 3 -6 2 -13 -3 -16 -11 -7 -36 22 -27 32 6 6
78 30 82 28 1 -1 4 -14 8 -30z m-1004 21 c0 -2 -10 -12 -22 -23 l-23 -19 19
23 c18 21 26 27 26 19z m2277 -12 c0 -8 -4 -12 -9 -9 -5 3 -6 10 -3 15 9 13
12 11 12 -6z m-598 -1 c17 -4 28 -10 25 -15 -3 -5 -10 -7 -15 -3 -5 3 -8 0 -7
-6 2 -7 -5 -14 -15 -15 -9 -2 -15 1 -12 5 3 5 1 12 -5 15 -6 4 -9 1 -8 -5 2
-7 -4 -14 -12 -15 -10 -2 -17 6 -18 21 -2 26 10 29 67 18z m8355 -19 c-7 21
-6 20 13 -6 11 -13 6 -15 -35 -13 -62 2 -61 2 -33 25 l25 20 18 -23 c16 -20
17 -20 12 -3z m-9176 -11 c-1 -5 -9 -9 -16 -10 -10 -2 -11 1 -1 12 12 14 24
13 17 -2z m3567 -820 c61 -40 278 -217 348 -284 68 -67 76 -103 29 -142 -19
-15 -171 -71 -443 -161 -228 -76 -441 -147 -474 -158 -127 -44 -166 -51 -209
-39 -26 7 -92 51 -181 121 -77 61 -159 125 -182 142 l-42 32 -1 83 0 83 37 15
c35 15 159 59 743 260 275 95 297 98 375 48z m-1198 -421 c-2 -16 -4 -5 -4 22
0 28 2 40 4 28 2 -13 2 -35 0 -50z m-407 -573 c0 -5 -11 -35 -25 -67 -14 -31
-23 -63 -21 -70 3 -7 -4 -17 -14 -23 -11 -6 -20 -15 -20 -21 0 -5 -11 -26 -24
-47 -14 -20 -27 -53 -30 -72 -3 -19 -13 -40 -23 -48 -10 -7 -18 -16 -19 -20 0
-4 -4 -15 -9 -25 -4 -10 -5 -21 -1 -24 3 -3 -8 -15 -25 -25 -17 -11 -32 -18
-34 -16 -1 2 13 40 32 86 26 62 39 82 50 77 12 -4 14 0 9 19 -6 26 79 232 110
267 18 20 44 25 44 9z m10 -112 c0 -6 -3 -8 -7 -5 -3 4 -13 1 -21 -6 -13 -10
-14 -9 -3 11 12 22 31 22 31 0z m2807 -52 c151 -70 551 -258 753 -353 52 -25
167 -79 255 -119 88 -41 170 -86 183 -100 31 -35 31 -115 -1 -166 -12 -20 -72
-90 -132 -155 -61 -65 -239 -260 -395 -433 -156 -173 -289 -319 -296 -325 -6
-5 -141 -153 -299 -329 -308 -342 -347 -381 -367 -371 -7 4 13 -17 44 -47 67
-61 93 -114 83 -167 -13 -72 -236 -878 -264 -957 -16 -44 -34 -107 -40 -139
-6 -32 -18 -67 -28 -77 -23 -26 -66 -22 -105 9 -108 89 -433 391 -449 417 -10
17 -19 49 -19 71 0 21 59 263 132 536 l132 497 58 -29 c67 -34 64 -33 72 -13
5 14 4 15 -8 5 -11 -9 -17 -8 -30 4 -21 21 -20 26 2 19 14 -5 15 -4 2 5 -8 6
-23 8 -34 5 -12 -4 -16 -2 -12 5 5 7 1 8 -10 4 -13 -5 -15 -3 -9 7 6 10 4 12
-8 7 -9 -3 -18 0 -21 8 -3 9 -12 12 -22 8 -13 -5 -15 -3 -9 8 7 11 5 11 -10
-1 -17 -14 -18 -13 -12 3 6 15 3 17 -12 12 -13 -4 -23 0 -30 12 -6 10 -11 13
-11 7 0 -6 -7 -11 -15 -11 -12 0 -12 3 -2 16 8 9 8 12 1 8 -7 -4 -15 0 -18 9
-4 10 -13 13 -27 9 -13 -5 -19 -3 -15 3 6 10 -23 26 -32 17 -3 -3 1 -5 8 -5 7
0 11 -2 8 -5 -8 -8 -39 6 -33 15 3 4 -2 10 -10 14 -8 3 -15 0 -16 -7 0 -7 -4
-2 -10 11 -7 18 -14 22 -30 17 -13 -5 -19 -3 -15 3 7 11 -21 25 -35 16 -5 -3
-9 -1 -9 3 0 13 -59 45 -69 39 -12 -8 -42 4 -36 14 2 4 -7 12 -20 18 -15 7
-26 8 -30 2 -4 -6 -11 -10 -17 -10 -6 0 -6 6 2 15 11 13 10 14 -5 9 -12 -5
-16 -4 -12 3 7 11 -22 28 -31 18 -3 -3 1 -5 8 -5 7 0 11 -2 8 -5 -8 -8 -39 6
-33 15 2 4 -8 12 -23 19 -25 11 -26 10 -8 -4 21 -16 18 -19 -8 -9 -9 3 -16 13
-16 21 0 13 -2 13 -17 2 -15 -12 -16 -12 -10 3 4 13 2 15 -10 11 -12 -5 -14
-3 -8 6 5 10 2 11 -13 7 -14 -5 -24 -1 -31 11 -10 17 -10 17 -11 1 0 -10 -4
-18 -9 -18 -5 0 -7 8 -4 19 6 25 -14 36 -34 19 -14 -11 -16 -11 -10 4 4 13 2
15 -10 11 -12 -5 -14 -3 -8 7 6 10 4 12 -8 7 -10 -3 -17 -2 -17 2 0 5 -10 7
-22 3 -17 -4 -20 -2 -15 12 4 10 3 15 -3 11 -14 -9 -51 4 -45 16 4 5 1 9 -5 9
-6 0 -22 11 -35 25 -19 18 -25 35 -25 70 0 44 3 48 147 208 81 89 193 212 248
272 56 61 232 254 391 430 421 467 686 758 704 772 22 18 69 31 117 32 32 1
78 -16 200 -73z m5753 -65 c0 -26 -12 -29 -174 -46 -77 -8 -184 -20 -236 -25
-52 -6 -160 -15 -240 -20 -80 -6 -237 -20 -350 -31 -113 -11 -293 -26 -400
-34 -299 -22 -453 -35 -480 -40 -14 -3 -104 -9 -200 -15 -96 -6 -209 -15 -250
-21 -41 -5 -129 -14 -195 -19 -66 -5 -183 -16 -260 -25 -294 -31 -364 -37
-380 -32 -8 4 -15 17 -15 30 0 23 2 23 203 40 111 9 303 26 427 37 124 11 284
25 355 30 72 6 171 15 220 20 50 6 149 14 220 19 72 5 168 14 215 20 47 5 150
15 230 21 231 17 493 39 650 55 80 8 208 20 285 26 77 6 167 14 200 18 33 5
86 9 118 10 50 1 57 -1 57 -18z m-8420 -41 c-15 -28 -2 -41 16 -16 8 11 14 16
14 12 0 -29 -134 -247 -228 -369 -74 -98 -245 -261 -351 -336 -55 -39 -103
-71 -106 -71 -15 0 11 22 74 65 38 25 79 57 91 70 42 45 11 39 -51 -9 -58 -45
-89 -64 -89 -54 0 3 42 37 94 77 167 127 360 355 486 573 30 53 56 92 58 87 2
-4 -2 -18 -8 -29z m-82 -41 c-38 -74 -123 -203 -146 -221 -9 -7 0 9 19 36 61
86 75 110 114 184 21 40 40 70 42 68 2 -2 -11 -32 -29 -67z m104 -83 c-55
-107 -216 -320 -332 -437 -118 -119 -277 -243 -352 -276 -44 -19 -33 -1 20 32
94 59 239 176 313 252 105 107 249 289 317 400 31 51 57 91 59 89 2 -1 -10
-28 -25 -60z m8328 51 c0 -2 -7 -27 -16 -56 -19 -66 -45 -67 -56 -2 -4 24 -5
48 -2 52 5 8 74 13 74 6z m-140 -32 c0 -25 -69 -93 -106 -105 -45 -15 -80 -2
-118 46 -48 60 -35 66 162 72 49 2 62 -1 62 -13z m-310 -22 c0 -20 -73 -91
-107 -104 -44 -17 -80 -10 -124 24 -23 17 -46 42 -50 55 -8 21 -6 22 49 23 31
0 80 4 107 9 90 14 125 12 125 -7z m-7814 -40 c3 -16 12 -41 19 -58 13 -30 62
-162 111 -300 14 -38 30 -81 36 -95 45 -108 67 -184 56 -192 -10 -5 -7 -12 11
-24 21 -15 23 -22 19 -93 -4 -73 -10 -90 -152 -411 -82 -184 -173 -391 -203
-460 -60 -136 -66 -147 -62 -110 4 45 -1 57 -26 68 -22 10 -29 8 -60 -19 -19
-17 -43 -44 -52 -59 -9 -16 -28 -31 -43 -34 -40 -8 -61 -33 -58 -70 3 -27 0
-31 -22 -34 -48 -5 -104 -24 -139 -48 -20 -13 -45 -24 -57 -24 -29 0 -44 -20
-33 -45 4 -11 8 -29 8 -40 1 -18 -5 -20 -83 -20 -70 0 -89 -4 -113 -21 -31
-23 -40 -61 -23 -94 10 -18 8 -20 -27 -20 l-38 0 -37 103 c-20 56 -65 176
-100 267 -62 162 -63 167 -62 260 l0 95 157 355 c142 320 184 400 209 400 11
0 116 68 163 105 22 18 55 40 73 49 88 45 366 362 475 542 18 29 35 54 39 54
4 0 10 -12 14 -27z m7454 13 c0 -25 -18 -64 -40 -86 -28 -28 -122 -28 -167 0
-36 21 -59 58 -46 71 5 5 47 13 93 18 134 13 160 13 160 -3z m-330 -40 c0 -52
-129 -111 -191 -87 -28 10 -89 64 -89 79 0 5 51 14 113 19 178 16 167 16 167
-11z m1040 -12 c0 -19 -5 -24 -25 -24 -25 0 -25 0 -10 30 18 34 35 31 35 -6z
m-288 -11 l19 -31 -56 -7 c-31 -4 -58 -5 -61 -2 -10 10 50 78 65 75 8 -2 23
-17 33 -35z m-1099 -14 c-28 -50 -89 -89 -137 -89 -60 0 -130 38 -134 72 -3
25 -1 27 50 32 77 9 126 12 186 14 l53 2 -18 -31z m752 -4 c19 -19 35 -37 35
-40 0 -3 -22 -5 -50 -5 -27 0 -50 4 -50 9 0 13 21 71 26 71 3 0 20 -16 39 -35z
m-1095 -7 c0 -20 -37 -76 -57 -86 -10 -5 -41 -13 -69 -17 -42 -5 -60 -3 -91
13 -46 24 -67 46 -61 64 9 27 278 52 278 26z m757 -30 c13 -12 23 -25 23 -30
0 -4 -26 -8 -57 -8 l-57 0 29 30 c16 17 31 30 34 30 2 0 15 -10 28 -22z
m-1097 -7 c0 -35 -12 -52 -53 -73 -33 -16 -52 -19 -96 -15 -56 6 -84 24 -95
63 -6 21 -2 22 106 31 62 6 119 11 126 11 6 1 12 -7 12 -17z m756 -49 c-14 -2
-38 -2 -52 0 l-26 3 22 28 23 28 29 -28 30 -28 -26 -3z m1283 42 c-18 -18 -84
-27 -309 -43 -320 -22 -447 -32 -530 -41 -47 -5 -178 -16 -293 -25 -114 -9
-213 -18 -220 -20 -6 -2 -88 -9 -182 -15 -158 -10 -227 -16 -445 -41 -47 -5
-186 -16 -310 -24 -124 -8 -256 -19 -295 -25 -86 -12 -192 -13 -199 -2 -3 5
102 18 232 30 130 12 602 56 1047 97 645 61 1252 111 1495 124 22 1 23 0 9
-15z m-8480 -26 c-31 -45 -219 -232 -247 -247 -13 -7 30 41 96 106 65 65 127
130 136 146 10 15 23 27 28 27 5 0 -1 -15 -13 -32z m6131 15 c0 -16 -40 -72
-57 -81 -30 -16 -91 -23 -128 -16 -33 6 -65 42 -65 72 0 10 121 28 203 31 26
0 47 -2 47 -6z m-6317 -18 c-3 -9 -8 -14 -10 -11 -3 3 -2 9 2 15 9 16 15 13 8
-4z m7047 -47 c0 -5 -20 -8 -45 -8 -38 0 -43 3 -38 18 3 9 13 25 22 35 15 18
17 17 38 -10 13 -15 23 -31 23 -35z m-1030 35 c0 -3 -11 -21 -26 -40 -49 -65
-124 -81 -185 -40 -19 12 -35 32 -37 44 -3 18 3 23 30 27 78 13 218 19 218 9z
m674 -38 c24 -18 12 -35 -25 -35 -32 0 -34 3 -19 31 13 22 19 23 44 4z m1856
-44 c0 -34 -5 -63 -11 -67 -7 -4 -43 -9 -80 -12 -81 -6 -84 0 -46 79 23 49 32
54 105 58 l32 1 0 -59z m-2171 25 c30 -32 20 -46 -31 -46 -39 0 -40 1 -25 18
10 10 17 26 17 35 0 24 13 21 39 -7z m1706 -63 c-1 -29 -6 -58 -11 -63 -6 -6
-37 -14 -68 -17 -50 -5 -60 -3 -81 17 -19 18 -25 34 -25 66 l0 43 43 4 c23 2
65 4 92 3 l50 -1 0 -52z m-2024 27 c28 -15 25 -44 -3 -36 -13 3 -29 6 -36 6
-10 0 -10 4 0 20 15 23 14 23 39 10z m1649 -35 c0 -37 -22 -49 -34 -19 -12 32
-6 54 14 54 16 0 20 -7 20 -35z m-80 1 c0 -14 -4 -28 -10 -31 -5 -3 -10 0 -10
8 0 8 -10 22 -22 30 -23 16 -23 16 10 16 27 1 32 -2 32 -23z m-329 -16 c-26
-22 -37 -25 -46 -10 -11 18 5 30 38 30 l32 -1 -24 -19z m109 1 c0 -38 -11 -51
-44 -51 l-31 0 24 19 c16 12 22 24 18 35 -5 11 -1 16 13 16 13 0 20 -7 20 -19z
m-330 -10 c0 -5 -7 -14 -15 -21 -12 -10 -19 -10 -28 -1 -9 9 -9 14 3 21 19 12
40 13 40 1z m440 -21 c0 -5 -7 -10 -15 -10 -8 0 -15 5 -15 10 0 6 7 10 15 10
8 0 15 -4 15 -10z m-695 -10 c-3 -5 -13 -10 -21 -10 -8 0 -14 5 -14 10 0 6 9
10 21 10 11 0 17 -4 14 -10z m385 0 c0 -12 -40 -34 -47 -26 -9 8 17 36 33 36
8 0 14 -4 14 -10z m-548 -21 c-43 -17 -56 -18 -68 -8 -23 19 1 29 66 28 l55 0
-53 -20z m323 -9 c0 -8 -10 -16 -22 -18 -25 -4 -26 -2 -17 23 8 19 39 16 39
-5z m1493 -27 c4 -39 -6 -42 -37 -9 -26 28 -20 49 12 44 17 -2 23 -11 25 -35z
m-2140 -48 l4 -55 -43 -20 c-62 -28 -174 -28 -189 -1 -11 22 -14 134 -2 128 4
-2 52 1 107 8 55 6 104 8 109 3 5 -4 11 -32 14 -63z m1693 43 c0 -2 5 -115 10
-253 11 -306 32 -452 107 -745 24 -94 27 -122 26 -270 0 -136 -4 -175 -20
-225 -17 -52 -24 -60 -48 -63 -56 -7 -84 46 -122 224 -27 129 -27 130 -20 414
7 310 -3 548 -35 760 -10 68 -16 126 -13 129 15 15 112 39 115 29z m-8141 -22
c0 -2 -8 -10 -17 -17 -16 -13 -17 -12 -4 4 13 16 21 21 21 13z m8497 -134 c30
-40 33 -49 33 -117 0 -63 -3 -76 -19 -85 -30 -16 -31 -14 -31 50 0 39 -9 82
-25 126 -30 79 -29 76 -8 72 9 -2 32 -23 50 -46z m-2106 -211 c-3 -178 8 -332
28 -384 38 -97 109 -534 117 -718 10 -223 -8 -261 -93 -209 -39 23 -77 94 -91
170 -19 98 -24 291 -12 445 11 148 5 338 -20 605 -4 52 -9 131 -11 175 l-2 80
34 12 c19 7 39 12 44 12 6 1 9 -66 6 -188z m1985 55 c-8 -58 -26 -78 -26 -27
0 15 -3 50 -6 77 l-6 49 22 -22 c20 -19 22 -27 16 -77z m-1793 -206 c6 -24 47
-28 47 -5 0 8 3 15 6 15 3 0 62 -21 130 -47 97 -37 124 -51 124 -65 0 -15 3
-17 19 -8 21 10 68 -2 132 -36 19 -10 49 -16 67 -15 17 1 32 -1 32 -6 0 -12
460 -7 493 6 34 13 100 15 93 2 -11 -17 -175 -67 -351 -106 -60 -14 -119 -29
-130 -34 -25 -12 -307 -31 -337 -23 -12 3 -34 11 -48 19 -14 7 -33 13 -43 13
-10 0 -46 13 -80 29 -47 22 -71 42 -100 81 -50 67 -87 137 -87 165 0 37 24 49
33 15z m2052 -181 c16 -108 42 -246 49 -258 10 -16 65 -368 66 -421 1 -73 -9
-128 -25 -133 -40 -16 -117 80 -136 171 -14 69 -16 205 -4 370 5 87 4 153 -4
221 -12 88 -11 102 4 131 24 46 34 29 50 -81z m-678 -346 c-2 -16 -4 -3 -4 27
0 30 2 43 4 28 2 -16 2 -40 0 -55z m-7507 -312 c-4 -16 -13 -38 -19 -50 -11
-20 -13 -20 -37 -4 -25 16 -25 17 -6 24 11 4 26 24 33 43 9 26 16 33 25 25 8
-7 10 -19 4 -38z m1571 16 c-10 -9 -11 -8 -5 6 3 10 9 15 12 12 3 -3 0 -11 -7
-18z m-1567 -92 c-4 -8 -11 -15 -16 -15 -6 0 -5 6 2 15 7 8 14 15 16 15 2 0 1
-7 -2 -15z m1811 -5 c-3 -5 -11 -10 -16 -10 -6 0 -7 5 -4 10 3 6 11 10 16 10
6 0 7 -4 4 -10z m-1863 -17 c10 -9 18 -26 17 -37 0 -20 -1 -20 -10 2 -5 13
-13 21 -19 17 -5 -3 -22 1 -37 10 -16 9 -20 14 -11 11 10 -3 20 -1 23 4 9 14
16 12 37 -7z m-47 -114 c19 -35 19 -59 1 -34 -12 17 -14 16 -25 -18 -7 -20
-17 -37 -22 -37 -5 0 -40 15 -77 34 -37 18 -84 39 -105 45 -21 7 -34 17 -31
23 4 6 9 7 13 1 3 -6 24 -16 46 -23 22 -7 60 -23 84 -36 24 -13 45 -24 46 -24
2 0 5 14 7 31 4 22 -1 34 -16 45 -11 8 -15 14 -9 14 7 0 15 -4 18 -10 10 -17
25 -11 25 10 0 27 27 15 45 -21z m-210 13 c-3 -3 -11 0 -18 7 -9 10 -8 11 6 5
10 -3 15 -9 12 -12z m8655 -31 c0 -15 -11 -19 -61 -25 -86 -9 -149 -8 -149 3
0 19 29 30 90 34 36 2 77 4 93 5 20 2 27 -3 27 -17z m-8607 -49 c87 -41 151
-82 127 -82 -6 0 -25 9 -41 21 -39 27 -148 76 -212 94 l-52 15 45 -3 c26 -2
84 -22 133 -45z m8090 9 c15 -15 -63 -34 -127 -33 -58 2 -88 14 -72 29 20 21
179 24 199 4z m-505 -48 c-4 -35 -26 -40 -160 -42 -97 -1 -98 -1 -98 23 0 22
5 25 53 30 28 3 66 8 82 9 17 2 52 5 78 6 47 1 48 0 45 -26z m-7767 -27 c72
-16 236 -79 258 -101 12 -11 12 -19 1 -44 -14 -34 -31 -39 -50 -16 -9 10 -9
15 -1 15 26 0 9 41 -26 64 -77 50 -297 101 -315 73 -4 -7 -2 -17 6 -22 17 -13
4 -25 -41 -41 -29 -11 -32 -10 -38 13 -7 31 0 42 39 59 40 17 85 17 167 0z
m8768 -24 c29 -57 60 -187 72 -304 13 -127 15 -374 7 -793 -4 -206 -3 -324 3
-332 6 -6 9 -33 7 -59 -3 -46 -4 -49 -38 -55 -19 -4 -39 -5 -44 -2 -5 3 -5 33
0 72 16 133 0 391 -31 506 -10 33 -21 83 -25 110 -5 28 -25 111 -44 185 -68
255 -76 445 -26 621 26 92 85 117 119 51z m-506 -29 c19 -22 53 -157 62 -244
4 -35 13 -113 21 -173 13 -88 14 -157 7 -375 -12 -389 -10 -645 6 -674 7 -13
11 -35 9 -48 -2 -20 -9 -24 -45 -27 l-43 -3 0 89 c0 178 -60 627 -100 752 -55
169 -78 501 -43 610 29 90 88 134 126 93z m-1703 -12 c0 -20 -30 -29 -123 -35
-75 -6 -102 -4 -114 6 -14 11 -3 15 73 24 115 15 164 16 164 5z m-6435 -11 c3
-6 -1 -7 -9 -4 -18 7 -21 14 -7 14 6 0 13 -4 16 -10z m-1792 -42 c14 -18 43
-70 66 -115 l41 -82 -30 -63 c-17 -35 -30 -76 -30 -92 0 -16 -6 -37 -14 -45
-20 -22 -31 -71 -17 -71 6 0 11 8 11 18 0 10 6 26 14 37 7 11 16 37 20 59 8
43 46 126 57 126 9 0 136 -244 200 -383 30 -64 39 -95 34 -115 -3 -16 -55 -94
-115 -175 -122 -163 -146 -181 -185 -135 -25 29 -253 459 -319 601 -25 54 -46
109 -46 122 0 31 181 294 228 333 28 21 60 14 85 -20z m1712 1 c71 -20 185
-71 185 -84 0 -7 -13 -41 -29 -76 -16 -35 -57 -127 -91 -204 -34 -77 -69 -148
-78 -157 -17 -20 -57 -23 -97 -8 -25 10 -58 66 -48 83 3 5 -2 16 -10 25 -8 9
-18 27 -22 40 -6 22 -5 23 31 16 46 -8 39 12 -8 24 -17 4 -38 18 -47 31 -15
23 -15 23 9 17 14 -4 44 -15 67 -23 36 -13 41 -18 33 -33 -7 -13 -5 -26 4 -44
13 -25 29 -26 20 -1 -3 7 16 45 41 84 29 44 44 78 41 88 -6 14 -8 14 -21 -3
-14 -18 -14 -18 -15 8 0 15 7 31 17 36 14 9 15 12 2 24 -8 8 -23 17 -34 21
-73 23 -127 46 -107 47 12 0 22 4 22 10 0 10 16 6 68 -17 18 -8 38 -13 45 -10
19 6 -68 46 -136 62 l-62 15 55 -5 c30 -3 75 -8 99 -11 32 -5 42 -4 37 4 -4 7
-16 12 -27 12 -10 0 -18 6 -16 13 1 7 -15 14 -43 18 -44 6 -44 6 15 7 33 1 78
-3 100 -9z m-255 -22 c0 -1 -9 -20 -20 -42 -11 -22 -20 -37 -20 -33 0 3 -7 22
-15 42 l-15 36 35 0 c19 0 35 -1 35 -3z m6767 -109 c17 -40 34 -97 38 -127 3
-29 12 -72 19 -95 26 -80 39 -403 26 -678 -10 -218 -10 -276 4 -419 9 -92 16
-171 16 -177 0 -14 -38 -22 -71 -15 l-29 5 0 92 c0 185 -56 494 -135 748 -31
97 -59 354 -52 468 7 126 23 176 72 226 60 63 75 59 112 -28z m-6714 45 c-7
-2 -19 -2 -25 0 -7 3 -2 5 12 5 14 0 19 -2 13 -5z m120 -62 c40 -14 40 -13 31
-34 -5 -13 -13 -12 -57 9 -34 15 -71 24 -107 25 -37 0 -49 3 -35 8 29 11 124
7 168 -8z m-25 -51 c47 -21 46 -19 30 -72 -9 -29 -15 -37 -27 -32 -9 3 -41 15
-71 27 -53 20 -70 32 -70 50 0 12 55 -1 109 -24 24 -11 47 -17 50 -14 8 8 -16
22 -71 42 -27 10 -48 23 -48 30 0 19 49 15 98 -7z m52 -87 c-11 -17 -11 -17
-6 0 3 10 6 24 7 30 0 9 2 9 5 0 3 -7 0 -20 -6 -30z m7800 -977 c0 -3 -4 -8
-10 -11 -5 -3 -10 -1 -10 4 0 6 5 11 10 11 6 0 10 -2 10 -4z m90 -83 c0 -5 -4
-15 -10 -23 -11 -18 -25 -7 -17 15 6 15 27 21 27 8z m-230 -33 c0 -5 -4 -10
-10 -10 -5 0 -10 5 -10 10 0 6 5 10 10 10 6 0 10 -4 10 -10z m1264 -119 c3 -5
9 -41 12 -80 l7 -71 -55 0 c-51 0 -56 2 -86 38 -17 22 -44 45 -61 52 -54 22
-35 43 54 63 37 8 124 7 129 -2z m-460 -39 c9 -11 20 -46 24 -78 l7 -59 -55
-12 c-95 -20 -108 -18 -115 20 -13 69 -3 100 40 124 49 28 77 29 99 5z m256
-67 c10 -12 9 -16 -5 -21 -19 -8 -40 9 -31 25 10 15 21 14 36 -4z m-100 -15
c0 -5 -16 -10 -36 -10 -31 0 -36 -3 -31 -20 6 -24 -8 -27 -17 -4 -14 36 -7 44
39 44 25 0 45 -4 45 -10z m160 -24 c0 -3 -4 -8 -10 -11 -5 -3 -10 -1 -10 4 0
6 5 11 10 11 6 0 10 -2 10 -4z m-650 -27 c0 -19 -4 -21 -31 -15 -17 3 -37 6
-44 6 -6 0 -12 7 -12 15 0 11 12 15 44 15 37 0 43 -3 43 -21z m-130 -8 c11
-21 3 -54 -10 -46 -5 3 -6 14 -3 25 4 16 0 20 -20 20 -14 0 -29 5 -32 10 -4 6
6 10 24 10 20 0 34 -7 41 -19z m-162 2 c-10 -2 -18 -13 -18 -23 0 -20 -25 -50
-42 -50 -6 0 -8 12 -4 30 5 27 3 30 -22 31 -24 0 -25 1 -7 9 11 5 40 8 65 8
25 0 37 -2 28 -5z m1256 -8 c-4 -8 -9 -15 -13 -15 -3 0 -78 -7 -166 -15 -88
-8 -232 -19 -320 -24 -186 -13 -955 -76 -1095 -91 -52 -6 -110 -10 -128 -10
-36 0 -72 -15 -72 -30 0 -5 31 -6 71 -3 l71 6 -21 -41 c-12 -23 -29 -42 -38
-42 -8 0 -36 21 -62 46 -41 41 -52 47 -101 51 -31 3 -146 -6 -260 -20 -197
-25 -333 -39 -524 -53 -71 -5 -88 -4 -84 7 7 20 51 28 255 44 367 30 439 36
533 45 52 5 156 14 230 20 74 6 191 18 260 26 69 9 147 13 173 9 27 -3 54 -2
60 3 11 8 233 29 312 29 17 0 116 10 220 21 105 11 282 26 395 32 113 6 207
13 209 16 2 2 26 4 52 4 39 0 47 -3 43 -15z m-2352 -62 c2 -39 -1 -73 -7 -80
-5 -6 -59 -14 -121 -18 l-111 -7 -6 54 c-13 100 -16 95 66 106 39 5 95 10 124
11 l51 1 4 -67z m846 25 c-2 -22 -9 -34 -21 -36 -13 -3 -16 2 -15 20 3 18 -2
24 -25 26 -41 5 -22 22 24 22 39 0 40 -1 37 -32z m298 -5 c-7 -7 -26 7 -26 19
0 6 6 6 15 -2 9 -7 13 -15 11 -17z m-544 -23 c-17 -29 -47 -48 -60 -36 -6 6
57 65 70 66 4 0 -1 -14 -10 -30z m327 16 c7 -9 8 -17 2 -20 -14 -9 -41 4 -41
20 0 18 24 18 39 0z m-232 -12 c8 -22 -11 -37 -36 -29 -17 5 -19 10 -11 26 13
23 38 25 47 3z m1653 -4 c0 -22 -20 -26 -38 -8 -19 19 -14 28 13 28 18 0 25
-5 25 -20z m-1897 -18 c21 -23 13 -32 -25 -32 -31 0 -33 3 -18 31 13 24 22 24
43 1z m1627 13 c0 -11 -34 -75 -41 -75 -4 0 -22 15 -40 33 l-34 32 50 6 c28 3
53 7 58 7 4 1 7 0 7 -3z m-350 -30 c0 -3 -7 -22 -15 -41 l-15 -36 -42 34 -42
33 44 6 c25 3 51 7 58 7 6 1 12 0 12 -3z m544 -10 c17 -8 37 -24 43 -34 11
-18 7 -20 -75 -31 -131 -17 -132 -17 -132 14 0 56 93 85 164 51z m-328 -26
c31 -19 61 -56 52 -64 -2 -2 -56 -7 -120 -10 -100 -7 -118 -5 -118 7 0 22 21
44 65 67 51 26 79 26 121 0z m-536 6 c0 -13 -41 -85 -48 -85 -14 0 -83 76 -76
83 9 8 124 10 124 2z m-371 -56 c-30 -43 -46 -46 -80 -13 -36 34 -25 44 49 44
l53 0 -22 -31z m571 9 c81 -42 70 -47 -118 -64 -67 -6 -72 -5 -66 12 26 71
103 93 184 52z m-372 -12 c48 -25 79 -52 70 -62 -3 -3 -61 -8 -128 -11 -118
-6 -122 -6 -112 13 19 35 81 83 110 84 7 0 34 -11 60 -24z m-355 -20 c33 -14
84 -62 76 -71 -3 -2 -45 -8 -95 -11 -49 -4 -94 -11 -101 -16 -33 -26 -46 37
-14 66 15 14 77 42 99 46 1 0 17 -6 35 -14z m-563 -21 c0 -3 -9 -24 -21 -46
-14 -28 -24 -38 -32 -31 -7 5 -29 21 -49 36 -21 16 -35 32 -32 37 5 10 134 13
134 4z m229 -37 c33 -17 61 -35 61 -39 0 -4 -44 -10 -97 -14 -54 -3 -110 -9
-125 -11 -35 -7 -37 12 -7 50 43 54 84 58 168 14z m-609 -1 c0 -8 -9 -22 -20
-32 -19 -17 -21 -17 -42 1 -13 10 -25 20 -27 21 -1 1 0 6 4 12 10 16 85 14 85
-2z m-311 -32 c-9 -9 -23 -13 -32 -9 -28 10 -19 24 15 24 29 0 31 -2 17 -15z"/>
<path d="M5244 5305 c-9 -23 16 -46 45 -43 29 3 41 35 19 49 -21 14 -58 10
-64 -6z"/>
<path d="M3865 4270 c-3 -5 -1 -10 4 -10 6 0 11 5 11 10 0 6 -2 10 -4 10 -3 0
-8 -4 -11 -10z"/>
<path d="M6573 4422 c-51 -37 -93 -70 -93 -74 0 -14 33 -8 51 8 14 12 22 13
38 4 17 -9 19 -14 11 -31 -12 -21 -5 -43 10 -34 17 11 101 175 95 185 -10 16
-14 13 -112 -58z m51 -19 c-10 -15 -19 -29 -20 -31 0 -1 -9 1 -19 4 -15 6 -13
11 16 35 40 33 47 31 23 -8z"/>
<path d="M6467 4284 c-4 -4 -7 -15 -7 -25 0 -15 4 -17 23 -10 12 5 22 14 22
22 0 15 -27 24 -38 13z"/>
<path d="M6385 4260 c-10 -16 4 -30 31 -30 13 0 33 -9 45 -21 22 -22 54 -22
54 1 0 8 -14 17 -35 21 -18 4 -39 14 -46 23 -13 18 -40 21 -49 6z"/>
<path d="M6418 4212 c-23 -4 -23 -18 -2 -26 20 -8 27 -3 22 16 -1 7 -11 12
-20 10z"/>
<path d="M6632 3514 c-17 -12 -22 -25 -22 -59 0 -24 -4 -47 -10 -50 -5 -3 -10
-10 -10 -15 0 -5 16 2 36 15 20 14 47 25 60 25 24 0 64 31 64 50 0 20 -41 50
-68 50 -15 0 -38 -7 -50 -16z"/>
<path d="M6437 3468 c-31 -11 -46 -51 -27 -73 9 -11 33 -15 86 -15 41 0 74 -4
74 -9 0 -18 -58 -51 -109 -63 l-52 -12 45 -17 c24 -9 59 -27 77 -40 28 -19 32
-20 26 -5 -18 46 -18 66 -1 96 23 38 44 35 66 -9 20 -40 34 -51 68 -51 36 0
70 27 70 55 0 34 -32 49 -89 41 -59 -8 -110 16 -132 62 -24 52 -46 61 -102 40z"/>
<path d="M6753 2574 c-9 -18 -7 -27 8 -43 20 -21 49 -19 49 4 0 8 -14 15 -32
17 l-33 3 29 16 c25 14 26 17 9 21 -13 3 -22 -2 -30 -18z"/>
<path d="M6682 2573 c4 -20 18 -26 37 -14 18 12 5 31 -20 31 -14 0 -19 -6 -17
-17z"/>
<path d="M6703 2529 c-27 -10 -30 -24 -6 -33 20 -8 36 6 31 27 -2 11 -9 12
-25 6z"/>
<path d="M6550 2400 c-47 -84 -54 -110 -29 -110 5 0 52 32 105 72 61 46 91 75
85 81 -6 6 -20 2 -39 -11 -25 -18 -32 -19 -47 -8 -14 10 -15 17 -7 33 11 20 7
33 -9 33 -4 0 -31 -41 -59 -90z m62 -5 c0 -6 -15 -21 -34 -35 l-33 -25 16 25
c8 14 19 31 23 38 9 14 27 12 28 -3z"/>
<path d="M6255 2260 c-3 -5 -12 -7 -20 -3 -8 3 -15 3 -15 0 0 -13 30 -14 40
-1 7 8 10 14 7 14 -3 0 -8 -4 -12 -10z"/>
<path d="M6294 2244 c9 -8 13 -20 10 -26 -4 -7 -2 -8 4 -4 17 10 15 33 -4 40
-25 9 -27 7 -10 -10z"/>
<path d="M6330 2215 c-7 -9 -8 -15 -2 -15 5 0 12 7 16 15 3 8 4 15 2 15 -2 0
-9 -7 -16 -15z"/>
<path d="M6369 2211 c7 -5 11 -13 8 -18 -3 -5 0 -10 8 -10 8 0 13 5 12 11 -2
13 -18 26 -32 26 -5 0 -4 -4 4 -9z"/>
<path d="M6433 2168 c1 -10 5 -14 12 -9 14 11 80 12 69 1 -5 -4 -20 -10 -34
-13 -14 -2 0 -5 30 -5 57 -2 92 10 71 23 -7 4 -18 2 -25 -4 -10 -9 -15 -8 -19
3 -4 9 -24 15 -55 17 -43 3 -50 1 -49 -13z"/>
<path d="M6247 1713 c-4 -3 -7 -25 -7 -47 0 -72 46 -109 83 -68 25 27 21 60
-12 93 -29 28 -51 36 -64 22z"/>
<path d="M3815 3860 c-10 -11 -16 -22 -13 -25 3 -3 13 4 23 15 10 11 16 22 13
25 -3 3 -13 -4 -23 -15z"/>
<path d="M3880 3240 c-8 -6 -32 -9 -53 -8 l-37 2 -5 -107 c-2 -59 -7 -124 -11
-144 -6 -33 -5 -35 12 -27 10 4 37 8 60 8 l41 1 6 125 c3 70 9 134 13 143 7
19 -3 22 -26 7z"/>
<path d="M10330 3294 c0 -9 5 -14 12 -12 18 6 21 28 4 28 -9 0 -16 -7 -16 -16z"/>
<path d="M10266 3271 c-4 -7 -5 -15 -2 -18 9 -9 19 4 14 18 -4 11 -6 11 -12 0z"/>
<path d="M10456 3242 c-9 -14 12 -35 28 -29 23 9 20 37 -3 37 -11 0 -22 -4
-25 -8z"/>
<path d="M10376 3215 c-7 -27 -1 -45 15 -45 5 0 9 16 9 35 0 41 -15 47 -24 10z"/>
<path d="M10305 3201 c-6 -11 9 -23 19 -14 9 9 7 23 -3 23 -6 0 -12 -4 -16 -9z"/>
<path d="M10536 3175 c-3 -9 0 -15 9 -15 16 0 20 16 6 24 -5 3 -11 -1 -15 -9z"/>
<path d="M10680 3136 c0 -10 9 -16 21 -16 24 0 21 23 -4 28 -10 2 -17 -3 -17
-12z"/>
<path d="M10920 3130 c0 -5 7 -10 15 -10 8 0 15 5 15 10 0 6 -7 10 -15 10 -8
0 -15 -4 -15 -10z"/>
<path d="M11170 3130 c0 -5 7 -10 15 -10 8 0 15 5 15 10 0 6 -7 10 -15 10 -8
0 -15 -4 -15 -10z"/>
<path d="M10414 3119 c-8 -14 11 -33 25 -25 16 10 13 36 -3 36 -8 0 -18 -5
-22 -11z"/>
<path d="M10532 3083 c2 -10 13 -19 26 -21 17 -3 22 2 22 17 0 16 -6 21 -26
21 -19 0 -25 -5 -22 -17z"/>
<path d="M10810 3090 c0 -5 7 -10 15 -10 8 0 15 5 15 10 0 6 -7 10 -15 10 -8
0 -15 -4 -15 -10z"/>
<path d="M10660 3065 c0 -8 7 -15 15 -15 8 0 15 7 15 15 0 8 -7 15 -15 15 -8
0 -15 -7 -15 -15z"/>
<path d="M3724 1978 c3 -13 6 -39 6 -60 0 -30 3 -35 19 -31 14 3 20 17 24 51
3 26 4 47 4 48 -1 1 -15 4 -31 8 -26 6 -28 5 -22 -16z"/>
<path d="M3800 1950 c0 -5 7 -10 15 -10 8 0 15 5 15 10 0 6 -7 10 -15 10 -8 0
-15 -4 -15 -10z"/>
<path d="M3585 1561 c-6 -11 9 -23 19 -14 9 9 7 23 -3 23 -6 0 -12 -4 -16 -9z"/>
<path d="M10455 7190 c3 -5 8 -10 11 -10 2 0 4 5 4 10 0 6 -5 10 -11 10 -5 0
-7 -4 -4 -10z"/>
<path d="M7585 6656 c-10 -15 -16 -45 -16 -78 0 -58 52 -253 67 -253 38 2 127
40 144 62 51 65 -1 224 -65 199 -8 -3 -18 7 -24 26 -24 69 -76 90 -106 44z"/>
<path d="M7894 5359 c-12 -4 -25 -13 -29 -19 -9 -15 3 -60 17 -60 6 0 16 -7
23 -17 7 -9 17 -13 23 -9 15 9 14 41 -1 82 -10 27 -15 30 -33 23z"/>
<path d="M7836 5238 c-3 -7 -7 -44 -11 -83 -3 -38 -9 -89 -12 -112 -10 -73 18
-52 64 49 40 90 47 133 13 89 -14 -20 -18 -21 -29 -7 -8 9 -10 26 -6 46 6 29
-11 45 -19 18z m29 -98 c3 -5 -4 -26 -15 -47 -12 -21 -19 -30 -16 -20 3 10 6
32 6 48 0 28 13 39 25 19z"/>
<path d="M4267 922 c-65 -14 -114 -29 -109 -34 4 -4 22 -4 39 1 43 13 62 -7
31 -31 -22 -17 -22 -18 -3 -18 24 0 177 82 177 95 -1 15 -9 14 -135 -13z m53
-18 c-46 -20 -47 -21 -51 -9 -2 5 10 13 26 16 52 11 61 9 25 -7z"/>
<path d="M4014 849 c-3 -6 0 -15 7 -20 11 -7 10 -9 -5 -9 -20 0 -20 0 0 -14
14 -11 21 -11 27 -3 6 9 10 9 14 0 2 -7 17 -13 32 -13 20 0 29 7 37 29 11 29
11 29 -34 35 -61 8 -70 8 -78 -5z"/>
<path d="M3050 590 c0 -5 5 -10 10 -10 6 0 10 5 10 10 0 6 -4 10 -10 10 -5 0
-10 -4 -10 -10z"/>
<path d="M3010 500 c0 -5 5 -10 11 -10 5 0 7 5 4 10 -3 6 -8 10 -11 10 -2 0
-4 -4 -4 -10z"/>
<path d="M2990 439 c0 -5 5 -7 10 -4 6 3 10 8 10 11 0 2 -4 4 -10 4 -5 0 -10
-5 -10 -11z"/>
<path d="M2945 340 c3 -5 8 -10 11 -10 2 0 4 5 4 10 0 6 -5 10 -11 10 -5 0 -7
-4 -4 -10z"/>
<path d="M3628 318 c-20 -7 -28 -17 -28 -34 0 -26 15 -36 86 -54 36 -9 41 -13
37 -34 -7 -33 29 -56 89 -56 59 0 88 24 88 74 0 19 9 45 21 60 l20 26 -53 0
c-29 1 -82 7 -118 15 -75 17 -104 17 -142 3z"/>
<path d="M2910 260 c0 -5 5 -10 10 -10 6 0 10 5 10 10 0 6 -4 10 -10 10 -5 0
-10 -4 -10 -10z"/>
<path d="M2890 214 c0 -8 5 -12 10 -9 6 4 8 11 5 16 -9 14 -15 11 -15 -7z"/>
<path d="M3580 213 c14 -10 37 -30 53 -45 l27 -26 6 24 c4 13 16 31 27 39 20
14 17 15 -40 15 -34 0 -70 3 -80 6 -12 3 -10 -1 7 -13z"/>
<path d="M2850 140 c0 -5 5 -10 10 -10 6 0 10 5 10 10 0 6 -4 10 -10 10 -5 0
-10 -4 -10 -10z"/>
<path d="M12699 46 c-2 -2 -94 -11 -204 -20 -110 -9 -218 -17 -240 -19 -22 -2
92 -4 253 -5 l292 -2 0 25 c0 23 -3 25 -48 25 -27 0 -51 -2 -53 -4z"/>
</g>
</svg>
